<mxfile host="app.diagrams.net" agent="Mozilla/5.0 (Macintosh; Intel Mac OS X 10_15_7) AppleWebKit/537.36 (KHTML, like Gecko) Chrome/134.0.0.0 Safari/537.36 Edg/134.0.0.0" version="26.1.3">
  <diagram name="第 1 页" id="ML09Pcj6mdJbEShiIVSp">
    <mxGraphModel dx="1426" dy="708" grid="1" gridSize="10" guides="1" tooltips="1" connect="1" arrows="1" fold="1" page="1" pageScale="1" pageWidth="827" pageHeight="1169" math="0" shadow="0">
      <root>
        <mxCell id="0" />
        <mxCell id="1" parent="0" />
        <mxCell id="Cdja2LxXkjuyDCjJl_yK-17" value="" style="ellipse;whiteSpace=wrap;html=1;fillColor=#f5f5f5;strokeColor=#666666;fontColor=#333333;" vertex="1" parent="1">
          <mxGeometry x="500" y="140" width="250" height="205" as="geometry" />
        </mxCell>
        <mxCell id="Cdja2LxXkjuyDCjJl_yK-11" value="" style="ellipse;whiteSpace=wrap;html=1;fillColor=#d5e8d4;strokeColor=#82b366;" vertex="1" parent="1">
          <mxGeometry x="55" y="140" width="370" height="230" as="geometry" />
        </mxCell>
        <mxCell id="Cdja2LxXkjuyDCjJl_yK-1" value="本地缓存公共服务模块" style="rounded=1;whiteSpace=wrap;html=1;fillColor=#dae8fc;strokeColor=#6c8ebf;" vertex="1" parent="1">
          <mxGeometry x="350" y="450" width="120" height="60" as="geometry" />
        </mxCell>
        <mxCell id="Cdja2LxXkjuyDCjJl_yK-2" value="cmdb 模块" style="rounded=1;whiteSpace=wrap;html=1;" vertex="1" parent="1">
          <mxGeometry x="100" y="260" width="120" height="60" as="geometry" />
        </mxCell>
        <mxCell id="Cdja2LxXkjuyDCjJl_yK-3" value="FlinkJob" style="rounded=1;whiteSpace=wrap;html=1;" vertex="1" parent="1">
          <mxGeometry x="565" y="212.5" width="120" height="60" as="geometry" />
        </mxCell>
        <mxCell id="Cdja2LxXkjuyDCjJl_yK-4" value="A 模块" style="rounded=1;whiteSpace=wrap;html=1;" vertex="1" parent="1">
          <mxGeometry x="180" y="190" width="120" height="60" as="geometry" />
        </mxCell>
        <mxCell id="Cdja2LxXkjuyDCjJl_yK-6" value="Redis" style="shape=cylinder3;whiteSpace=wrap;html=1;boundedLbl=1;backgroundOutline=1;size=15;fillColor=#fff2cc;strokeColor=#d6b656;" vertex="1" parent="1">
          <mxGeometry x="380" y="650" width="60" height="80" as="geometry" />
        </mxCell>
        <mxCell id="Cdja2LxXkjuyDCjJl_yK-7" value="本地缓存 Caffeine" style="rounded=1;whiteSpace=wrap;html=1;fillColor=#fff2cc;strokeColor=#d6b656;" vertex="1" parent="1">
          <mxGeometry x="350" y="555" width="120" height="60" as="geometry" />
        </mxCell>
        <mxCell id="Cdja2LxXkjuyDCjJl_yK-8" value="B 模块" style="rounded=1;whiteSpace=wrap;html=1;" vertex="1" parent="1">
          <mxGeometry x="230" y="270" width="120" height="60" as="geometry" />
        </mxCell>
        <mxCell id="Cdja2LxXkjuyDCjJl_yK-12" value="SpringBoot 项目" style="text;html=1;align=center;verticalAlign=middle;whiteSpace=wrap;rounded=0;" vertex="1" parent="1">
          <mxGeometry x="160" y="150" width="110" height="30" as="geometry" />
        </mxCell>
        <mxCell id="Cdja2LxXkjuyDCjJl_yK-13" value="" style="endArrow=classic;html=1;rounded=0;exitX=0.735;exitY=0.943;exitDx=0;exitDy=0;exitPerimeter=0;entryX=0.5;entryY=0;entryDx=0;entryDy=0;" edge="1" parent="1" source="Cdja2LxXkjuyDCjJl_yK-11" target="Cdja2LxXkjuyDCjJl_yK-1">
          <mxGeometry width="50" height="50" relative="1" as="geometry">
            <mxPoint x="160" y="500" as="sourcePoint" />
            <mxPoint x="400" y="440" as="targetPoint" />
          </mxGeometry>
        </mxCell>
        <mxCell id="Cdja2LxXkjuyDCjJl_yK-20" value="pom 文件加载依赖" style="edgeLabel;html=1;align=center;verticalAlign=middle;resizable=0;points=[];" vertex="1" connectable="0" parent="Cdja2LxXkjuyDCjJl_yK-13">
          <mxGeometry x="-0.4191" relative="1" as="geometry">
            <mxPoint as="offset" />
          </mxGeometry>
        </mxCell>
        <mxCell id="Cdja2LxXkjuyDCjJl_yK-15" value="&lt;div&gt;配置 cache: true&lt;/div&gt;自动装配 CacheService" style="rounded=0;whiteSpace=wrap;html=1;fillColor=#e1d5e7;strokeColor=#9673a6;" vertex="1" parent="1">
          <mxGeometry x="30" y="370" width="150" height="30" as="geometry" />
        </mxCell>
        <mxCell id="Cdja2LxXkjuyDCjJl_yK-16" value="手动调用初始化类" style="rounded=0;whiteSpace=wrap;html=1;fillColor=#e1d5e7;strokeColor=#9673a6;" vertex="1" parent="1">
          <mxGeometry x="640" y="360" width="150" height="30" as="geometry" />
        </mxCell>
        <mxCell id="Cdja2LxXkjuyDCjJl_yK-18" value="非 Spring 项目" style="text;html=1;align=center;verticalAlign=middle;whiteSpace=wrap;rounded=0;" vertex="1" parent="1">
          <mxGeometry x="570" y="160" width="100" height="20" as="geometry" />
        </mxCell>
        <mxCell id="Cdja2LxXkjuyDCjJl_yK-19" value="" style="endArrow=classic;html=1;rounded=0;exitX=0;exitY=1;exitDx=0;exitDy=0;entryX=0.5;entryY=0;entryDx=0;entryDy=0;" edge="1" parent="1" source="Cdja2LxXkjuyDCjJl_yK-17" target="Cdja2LxXkjuyDCjJl_yK-1">
          <mxGeometry width="50" height="50" relative="1" as="geometry">
            <mxPoint x="450" y="440" as="sourcePoint" />
            <mxPoint x="410" y="440" as="targetPoint" />
          </mxGeometry>
        </mxCell>
        <mxCell id="Cdja2LxXkjuyDCjJl_yK-21" value="&lt;span style=&quot;color: rgba(0, 0, 0, 0); font-family: monospace; font-size: 0px; text-align: start; background-color: rgb(251, 251, 251);&quot;&gt;%3CmxGraphModel%3E%3Croot%3E%3CmxCell%20id%3D%220%22%2F%3E%3CmxCell%20id%3D%221%22%20parent%3D%220%22%2F%3E%3CmxCell%20id%3D%222%22%20value%3D%22pom%20%E6%96%87%E4%BB%B6%E5%8A%A0%E8%BD%BD%E4%BE%9D%E8%B5%96%22%20style%3D%22edgeLabel%3Bhtml%3D1%3Balign%3Dcenter%3BverticalAlign%3Dmiddle%3Bresizable%3D0%3Bpoints%3D%5B%5D%3B%22%20vertex%3D%221%22%20connectable%3D%220%22%20parent%3D%221%22%3E%3CmxGeometry%20x%3D%22350.9130900083876%22%20y%3D%22383.7557833917033%22%20as%3D%22geometry%22%2F%3E%3C%2FmxCell%3E%3C%2Froot%3E%3C%2FmxGraphModel%3E&lt;/span&gt;" style="edgeLabel;html=1;align=center;verticalAlign=middle;resizable=0;points=[];" vertex="1" connectable="0" parent="Cdja2LxXkjuyDCjJl_yK-19">
          <mxGeometry x="-0.1392" relative="1" as="geometry">
            <mxPoint as="offset" />
          </mxGeometry>
        </mxCell>
        <mxCell id="Cdja2LxXkjuyDCjJl_yK-23" value="pom 文件加载依赖" style="edgeLabel;html=1;align=center;verticalAlign=middle;resizable=0;points=[];" vertex="1" connectable="0" parent="Cdja2LxXkjuyDCjJl_yK-19">
          <mxGeometry x="-0.1023" y="-4" relative="1" as="geometry">
            <mxPoint as="offset" />
          </mxGeometry>
        </mxCell>
        <mxCell id="Cdja2LxXkjuyDCjJl_yK-25" value="" style="endArrow=classic;html=1;rounded=0;exitX=0.5;exitY=1;exitDx=0;exitDy=0;entryX=0.5;entryY=0;entryDx=0;entryDy=0;" edge="1" parent="1" source="Cdja2LxXkjuyDCjJl_yK-1" target="Cdja2LxXkjuyDCjJl_yK-7">
          <mxGeometry width="50" height="50" relative="1" as="geometry">
            <mxPoint x="440" y="570" as="sourcePoint" />
            <mxPoint x="490" y="520" as="targetPoint" />
          </mxGeometry>
        </mxCell>
        <mxCell id="Cdja2LxXkjuyDCjJl_yK-26" style="edgeStyle=orthogonalEdgeStyle;rounded=0;orthogonalLoop=1;jettySize=auto;html=1;entryX=0.5;entryY=0;entryDx=0;entryDy=0;entryPerimeter=0;" edge="1" parent="1" source="Cdja2LxXkjuyDCjJl_yK-7" target="Cdja2LxXkjuyDCjJl_yK-6">
          <mxGeometry relative="1" as="geometry" />
        </mxCell>
      </root>
    </mxGraphModel>
  </diagram>
</mxfile>
